<svg xmlns="http://www.w3.org/2000/svg" viewBox="0 0 1000 800">
  <defs>
    <filter id="shadow" x="-20%" y="-20%" width="140%" height="140%"><feGaussianBlur in="SourceAlpha" stdDeviation="2"/><feOffset dx="1" dy="1" result="offsetblur"/><feComponentTransfer><feFuncA type="linear" slope="0.2"/></feComponentTransfer><feMerge><feMergeNode in="offsetblur"/><feMergeNode in="SourceGraphic"/></feMerge></filter><marker id="arrowhead" markerWidth="10" markerHeight="7" refX="9" refY="3.5" orient="auto"><polygon points="0 0, 10 3.5, 0 7" fill="#555" /></marker>
  </defs>

  <rect x="100.0" y="140" width="800.0" height="440" rx="16" fill="None" stroke="#ccc" stroke-width="2" stroke-dasharray="6,4" /><text x="120.0" y="170" font-family="Helvetica, Arial, sans-serif" font-size="16" fill="#999" font-weight="bold">GenUI Framework</text><rect x="160.0" y="60" width="180" height="60" rx="6" fill="#E1F5FE" stroke="#0288D1" stroke-width="2" filter="url(#shadow)" /><text x="250.0" y="86.0" font-family="Helvetica, Arial, sans-serif" font-size="13" fill="#222" text-anchor="middle" font-weight="600">User Input</text><text x="250.0" y="104.0" font-family="Helvetica, Arial, sans-serif" font-size="13" fill="#222" text-anchor="middle" font-weight="600">(Prompt)</text><rect x="660.0" y="60" width="180" height="60" rx="6" fill="#E1F5FE" stroke="#0288D1" stroke-width="2" filter="url(#shadow)" /><text x="750.0" y="86.0" font-family="Helvetica, Arial, sans-serif" font-size="13" fill="#222" text-anchor="middle" font-weight="600">User Interaction</text><text x="750.0" y="104.0" font-family="Helvetica, Arial, sans-serif" font-size="13" fill="#222" text-anchor="middle" font-weight="600">(View/Events)</text><rect x="410.0" y="180" width="180" height="60" rx="6" fill="#FFF3E0" stroke="#EF6C00" stroke-width="2" filter="url(#shadow)" /><text x="500.0" y="206.0" font-family="Helvetica, Arial, sans-serif" font-size="13" fill="#222" text-anchor="middle" font-weight="600">Conversation</text><text x="500.0" y="224.0" font-family="Helvetica, Arial, sans-serif" font-size="13" fill="#222" text-anchor="middle" font-weight="600">(Facade)</text><rect x="160.0" y="300" width="180" height="60" rx="6" fill="#FFF3E0" stroke="#EF6C00" stroke-width="2" filter="url(#shadow)" /><text x="250.0" y="335.0" font-family="Helvetica, Arial, sans-serif" font-size="13" fill="#222" text-anchor="middle" font-weight="600">Transport Adapter</text><rect x="660.0" y="300" width="180" height="60" rx="6" fill="#FFF3E0" stroke="#EF6C00" stroke-width="2" filter="url(#shadow)" /><text x="750.0" y="335.0" font-family="Helvetica, Arial, sans-serif" font-size="13" fill="#222" text-anchor="middle" font-weight="600">SurfaceController</text><rect x="160.0" y="480" width="180" height="60" rx="6" fill="#FFF3E0" stroke="#EF6C00" stroke-width="2" filter="url(#shadow)" /><text x="250.0" y="515.0" font-family="Helvetica, Arial, sans-serif" font-size="13" fill="#222" text-anchor="middle" font-weight="600">Parser / Transformer</text><rect x="660.0" y="480" width="180" height="60" rx="6" fill="#F3E5F5" stroke="#8E24AA" stroke-width="2" filter="url(#shadow)" /><text x="750.0" y="506.0" font-family="Helvetica, Arial, sans-serif" font-size="13" fill="#222" text-anchor="middle" font-weight="600">Surface</text><text x="750.0" y="524.0" font-family="Helvetica, Arial, sans-serif" font-size="13" fill="#222" text-anchor="middle" font-weight="600">(Widget)</text><rect x="160.0" y="620" width="180" height="60" rx="6" fill="#E8F5E9" stroke="#2E7D32" stroke-width="2" filter="url(#shadow)" /><text x="250.0" y="655.0" font-family="Helvetica, Arial, sans-serif" font-size="13" fill="#222" text-anchor="middle" font-weight="600">External LLM</text><path d="M250.0,120 L250.0,150.0 L450.0,150.0 L450.0,180" stroke="#555" stroke-width="2" marker-end="url(#arrowhead)" fill="none" stroke-linejoin="round" /><rect x="299.5" y="130.0" width="101" height="20" fill="white" stroke="#ddd" stroke-width="1" rx="3" opacity="0.95" /><text x="350.0" y="144.0" font-family="Helvetica, Arial, sans-serif" font-size="11" fill="#444" text-anchor="middle">sendRequest()</text><path d="M410.0,210.0 L250.0,210.0 L250.0,300" stroke="#555" stroke-width="2" marker-end="url(#arrowhead)" fill="none" stroke-linejoin="round" /><rect x="223.5" y="220.0" width="73" height="20" fill="white" stroke="#ddd" stroke-width="1" rx="3" opacity="0.95" /><text x="260.0" y="234.0" font-family="Helvetica, Arial, sans-serif" font-size="11" fill="#444" text-anchor="middle">delegates</text><path d="M340.0,330.0 L380.0,330.0 L380.0,600 L270.0,600 L270.0,620" stroke="#555" stroke-width="2" marker-end="url(#arrowhead)" fill="none" stroke-linejoin="round" /><rect x="346.5" y="455.0" width="87" height="20" fill="white" stroke="#ddd" stroke-width="1" rx="3" opacity="0.95" /><text x="390.0" y="469.0" font-family="Helvetica, Arial, sans-serif" font-size="11" fill="#444" text-anchor="middle">send prompt</text><path d="M160.0,650.0 L120.0,650.0 L120.0,330.0 L160.0,330.0" stroke="#555" stroke-width="2" marker-end="url(#arrowhead)" fill="none" stroke-linejoin="round" /><rect x="59.5" y="480.0" width="101" height="20" fill="white" stroke="#ddd" stroke-width="1" rx="3" opacity="0.95" /><text x="110.0" y="494.0" font-family="Helvetica, Arial, sans-serif" font-size="11" fill="#444" text-anchor="middle">stream chunks</text><path d="M250.0,360 L250.0,480" stroke="#555" stroke-width="2" marker-end="url(#arrowhead)" fill="none" stroke-linejoin="round" /><rect x="210.0" y="410.0" width="80" height="20" fill="white" stroke="#ddd" stroke-width="1" rx="3" opacity="0.95" /><text x="250.0" y="424.0" font-family="Helvetica, Arial, sans-serif" font-size="11" fill="#444" text-anchor="middle">pipes data</text><path d="M340.0,510.0 L500.0,510.0 L500.0,240" stroke="#555" stroke-width="2" marker-end="url(#arrowhead)" fill="none" stroke-linejoin="round" /><rect x="459.5" y="490.0" width="101" height="20" fill="white" stroke="#ddd" stroke-width="1" rx="3" opacity="0.95" /><text x="510.0" y="504.0" font-family="Helvetica, Arial, sans-serif" font-size="11" fill="#444" text-anchor="middle">parsed events</text><path d="M590.0,210.0 L750.0,210.0 L750.0,300" stroke="#555" stroke-width="2" marker-end="url(#arrowhead)" fill="none" stroke-linejoin="round" /><rect x="716.5" y="220.0" width="87" height="20" fill="white" stroke="#ddd" stroke-width="1" rx="3" opacity="0.95" /><text x="760.0" y="234.0" font-family="Helvetica, Arial, sans-serif" font-size="11" fill="#444" text-anchor="middle">forwards to</text><path d="M750.0,360 L750.0,480" stroke="#555" stroke-width="2" marker-end="url(#arrowhead)" fill="none" stroke-linejoin="round" /><rect x="699.5" y="410.0" width="101" height="20" fill="white" stroke="#ddd" stroke-width="1" rx="3" opacity="0.95" /><text x="750.0" y="424.0" font-family="Helvetica, Arial, sans-serif" font-size="11" fill="#444" text-anchor="middle">updates state</text><path d="M840.0,510.0 L880.0,510.0 L880.0,90.0 L840.0,90.0" stroke="#555" stroke-width="2" marker-end="url(#arrowhead)" fill="none" stroke-linejoin="round" /><rect x="850.0" y="290.0" width="80" height="20" fill="white" stroke="#ddd" stroke-width="1" rx="3" opacity="0.95" /><text x="890.0" y="304.0" font-family="Helvetica, Arial, sans-serif" font-size="11" fill="#444" text-anchor="middle">renders UI</text><path d="M750.0,120 L750.0,300" stroke="#555" stroke-width="2" marker-end="url(#arrowhead)" fill="none" stroke-linejoin="round" /><rect x="717.0" y="200.0" width="66" height="20" fill="white" stroke="#ddd" stroke-width="1" rx="3" opacity="0.95" /><text x="750.0" y="214.0" font-family="Helvetica, Arial, sans-serif" font-size="11" fill="#444" text-anchor="middle">UI Event</text><path d="M660.0,330.0 L610.0,330.0 L610.0,270 L550.0,270 L550.0,240" stroke="#555" stroke-width="2" marker-end="url(#arrowhead)" fill="none" stroke-linejoin="round" /><rect x="593.0" y="275.0" width="94" height="20" fill="white" stroke="#ddd" stroke-width="1" rx="3" opacity="0.95" /><text x="640.0" y="289.0" font-family="Helvetica, Arial, sans-serif" font-size="11" fill="#444" text-anchor="middle">client event</text>
</svg>